<svg xmlns="http://www.w3.org/2000/svg" viewBox="0 0 1200 800" role="img" aria-label="Corporate homepage design with WhatsApp and consultation CTA"><defs><linearGradient id="bg" x1="0" y1="0" x2="1" y2="1"><stop stop-color="#061724"/><stop offset="1" stop-color="#0e3144"/></linearGradient><radialGradient id="halo" cx="80%" cy="16%" r="60%"><stop stop-color="#d0ad68" stop-opacity=".46"/><stop offset="1" stop-color="#d0ad68" stop-opacity="0"/></radialGradient></defs><rect width="1200" height="800" rx="58" fill="url(#bg)"/><rect width="1200" height="800" rx="58" fill="url(#halo)"/><text x="78" y="58" font-family="Inter,Arial" font-size="22" font-weight="800" letter-spacing="6" fill="#d0ad68">WHATSAPP + CONSULTATION</text><text x="76" y="760" font-family="Georgia,serif" font-size="46" font-weight="700" fill="#fff">Corporate homepage design with WhatsApp and consultation CTA</text><rect x="72" y="84" width="1056" height="632" rx="52" fill="#ffffff" opacity=".94"/><rect x="116" y="128" width="260" height="54" rx="18" fill="#061724"/><rect x="804" y="128" width="252" height="54" rx="27" fill="#d0ad68"/><rect x="116" y="232" width="440" height="34" rx="17" fill="#061724"/><rect x="116" y="286" width="520" height="22" rx="11" fill="#64748b" opacity=".45"/><rect x="116" y="326" width="400" height="22" rx="11" fill="#64748b" opacity=".35"/><rect x="666" y="228" width="350" height="250" rx="30" fill="#061724"/><circle cx="960" cy="240" r="118" fill="#d0ad68" opacity=".28"/><rect x="716" y="310" width="220" height="22" rx="11" fill="#fff" opacity=".86"/><rect x="716" y="358" width="176" height="22" rx="11" fill="#d0ad68" opacity=".78"/><rect x="716" y="406" width="245" height="22" rx="11" fill="#fff" opacity=".56"/><rect x="116" y="402" width="160" height="104" rx="24" fill="#f7f3ea"/><rect x="306" y="402" width="160" height="104" rx="24" fill="#f7f3ea"/><rect x="496" y="402" width="160" height="104" rx="24" fill="#f7f3ea"/></svg>