<svg xmlns="http://www.w3.org/2000/svg" viewBox="0 0 390 980" role="img" aria-label="Mobile visual QA preview for Team"><rect width="390" height="980" fill="#061724"/><text x="28" y="52" font-family="Georgia" font-size="28" font-weight="700" fill="#fff">Minchala &amp; Associates</text><text x="28" y="82" font-family="Inter,Arial" font-size="11" font-weight="800" letter-spacing="3" fill="#d0ad68">MOBILE QA · TEAM</text><rect x="24" y="118" width="342" height="390" rx="34" fill="#f7f3ea"/><rect x="48" y="148" width="104" height="40" rx="12" fill="#061724"/><text x="100" y="174" text-anchor="middle" font-family="Georgia" font-size="17" fill="#d0ad68">M&amp;A</text><text x="48" y="252" font-family="Georgia" font-size="48" font-weight="700" fill="#061724">Team</text><text x="49" y="296" font-family="Inter,Arial" font-size="15" fill="#334155">Premium mobile layout with CTA,
contact and approved imagery.</text><rect x="48" y="350" width="230" height="48" rx="24" fill="#d0ad68"/><text x="163" y="380" text-anchor="middle" font-family="Inter,Arial" font-size="12" font-weight="800" fill="#061724">REQUEST APPOINTMENT</text><circle cx="320" cy="456" r="31" fill="#0b7a3b"/><text x="320" y="466" text-anchor="middle" font-size="22" fill="#fff">✆</text><text x="32" y="540" font-family="Inter,Arial" font-size="12" font-weight="800" letter-spacing="2" fill="#d0ad68">ASSETS VISIBLE</text><rect x="32" y="565" width="326" height="166" rx="22" fill="#fff" opacity=".95"/><image href="../../assets/images/office-interior-collage.svg" x="44" y="577" width="302" height="118" preserveAspectRatio="xMidYMid slice"/><text x="195" y="715" text-anchor="middle" font-family="Inter,Arial" font-size="10" font-weight="700" fill="#b99655">office-interior-collage.svg</text><rect x="32" y="770" width="326" height="166" rx="22" fill="#fff" opacity=".95"/><image href="../../assets/images/team-sailasri.svg" x="44" y="782" width="302" height="118" preserveAspectRatio="xMidYMid slice"/><text x="195" y="920" text-anchor="middle" font-family="Inter,Arial" font-size="10" font-weight="700" fill="#b99655">team-sailasri.svg</text><text x="28" y="940" font-family="Inter,Arial" font-size="11" fill="#d0ad68">+91 7842850732 · info@minchalaassociates.com</text></svg>