<svg xmlns="http://www.w3.org/2000/svg" viewBox="0 0 1200 800" role="img" aria-label="Professional profile banner image for CA Raviteja Minchala"><defs><linearGradient id="bg" x1="0" y1="0" x2="1" y2="1"><stop stop-color="#061724"/><stop offset="1" stop-color="#0e3144"/></linearGradient><radialGradient id="halo" cx="80%" cy="16%" r="60%"><stop stop-color="#d0ad68" stop-opacity=".46"/><stop offset="1" stop-color="#d0ad68" stop-opacity="0"/></radialGradient></defs><rect width="1200" height="800" rx="58" fill="url(#bg)"/><rect width="1200" height="800" rx="58" fill="url(#halo)"/><text x="78" y="58" font-family="Inter,Arial" font-size="22" font-weight="800" letter-spacing="6" fill="#d0ad68">PARTNER PROFILE</text><text x="76" y="760" font-family="Georgia,serif" font-size="46" font-weight="700" fill="#fff">Professional profile banner image for CA Raviteja Minchala</text><rect x="72" y="84" width="1056" height="632" rx="52" fill="#ffffff" opacity=".94"/><rect x="116" y="128" width="260" height="54" rx="18" fill="#061724"/><rect x="804" y="128" width="252" height="54" rx="27" fill="#d0ad68"/><rect x="116" y="232" width="440" height="34" rx="17" fill="#061724"/><rect x="116" y="286" width="520" height="22" rx="11" fill="#64748b" opacity=".45"/><rect x="116" y="326" width="400" height="22" rx="11" fill="#64748b" opacity=".35"/><circle cx="840" cy="322" r="112" fill="#d0ad68"/><path d="M660 632c32-142 102-212 180-212s148 70 180 212" fill="#0e3144"/><path d="M770 367h140" stroke="#061724" stroke-width="10" stroke-linecap="round" opacity=".35"/><rect x="116" y="386" width="360" height="38" rx="19" fill="#d0ad68"/><rect x="116" y="452" width="490" height="24" rx="12" fill="#64748b" opacity=".45"/><rect x="116" y="496" width="420" height="24" rx="12" fill="#64748b" opacity=".35"/></svg>