<svg xmlns="http://www.w3.org/2000/svg" viewBox="0 0 1200 800" role="img" aria-label="Office interior collage with certificates partner cabin meeting and operations areas"><defs><linearGradient id="bg" x1="0" y1="0" x2="1" y2="1"><stop stop-color="#061724"/><stop offset="1" stop-color="#0e3144"/></linearGradient><radialGradient id="halo" cx="80%" cy="16%" r="60%"><stop stop-color="#d0ad68" stop-opacity=".46"/><stop offset="1" stop-color="#d0ad68" stop-opacity="0"/></radialGradient></defs><rect width="1200" height="800" rx="58" fill="url(#bg)"/><rect width="1200" height="800" rx="58" fill="url(#halo)"/><text x="78" y="58" font-family="Inter,Arial" font-size="22" font-weight="800" letter-spacing="6" fill="#d0ad68">OFFICE INTERIOR</text><text x="76" y="760" font-family="Georgia,serif" font-size="46" font-weight="700" fill="#fff">Office interior collage with certificates partner cabin meeting and operations areas</text><rect x="72" y="84" width="1056" height="632" rx="52" fill="#ffffff" opacity=".94"/><rect x="116" y="128" width="260" height="54" rx="18" fill="#061724"/><rect x="804" y="128" width="252" height="54" rx="27" fill="#d0ad68"/><rect x="116" y="232" width="440" height="34" rx="17" fill="#061724"/><rect x="116" y="286" width="520" height="22" rx="11" fill="#64748b" opacity=".45"/><rect x="116" y="326" width="400" height="22" rx="11" fill="#64748b" opacity=".35"/><rect x="658" y="226" width="350" height="220" rx="26" fill="#f7f3ea"/><rect x="700" y="268" width="92" height="126" rx="10" fill="#fff" stroke="#b99655" stroke-width="8"/><rect x="820" y="268" width="92" height="126" rx="10" fill="#fff" stroke="#b99655" stroke-width="8"/><rect x="686" y="484" width="300" height="42" rx="21" fill="#061724" opacity=".9"/><circle cx="210" cy="448" r="58" fill="#d0ad68"/><rect x="152" y="512" width="116" height="88" rx="38" fill="#0e3144"/><rect x="330" y="410" width="250" height="170" rx="28" fill="#fff" stroke="#e2e8f0" stroke-width="4"/></svg>