<svg xmlns="http://www.w3.org/2000/svg" viewBox="0 0 1200 800" role="img" aria-label="Professional office and building branding collage"><defs><linearGradient id="bg" x1="0" y1="0" x2="1" y2="1"><stop stop-color="#061724"/><stop offset="1" stop-color="#0e3144"/></linearGradient><radialGradient id="halo" cx="80%" cy="16%" r="60%"><stop stop-color="#d0ad68" stop-opacity=".46"/><stop offset="1" stop-color="#d0ad68" stop-opacity="0"/></radialGradient></defs><rect width="1200" height="800" rx="58" fill="url(#bg)"/><rect width="1200" height="800" rx="58" fill="url(#halo)"/><text x="78" y="58" font-family="Inter,Arial" font-size="22" font-weight="800" letter-spacing="6" fill="#d0ad68">OFFICE BRANDING</text><text x="76" y="760" font-family="Georgia,serif" font-size="46" font-weight="700" fill="#fff">Professional office and building branding collage</text><rect x="72" y="84" width="1056" height="632" rx="52" fill="#ffffff" opacity=".94"/><rect x="116" y="128" width="260" height="54" rx="18" fill="#061724"/><rect x="804" y="128" width="252" height="54" rx="27" fill="#d0ad68"/><rect x="116" y="232" width="440" height="34" rx="17" fill="#061724"/><rect x="116" y="286" width="520" height="22" rx="11" fill="#64748b" opacity=".45"/><rect x="116" y="326" width="400" height="22" rx="11" fill="#64748b" opacity=".35"/><rect x="656" y="222" width="360" height="300" rx="28" fill="#0e3144"/><path d="M700 492V290h72v202M800 492V260h72v232M900 492V320h72v172" fill="#f7f3ea" opacity=".92"/><path d="M678 545h326" stroke="#d0ad68" stroke-width="14" stroke-linecap="round"/><rect x="140" y="390" width="140" height="120" rx="24" fill="#f7f3ea"/><rect x="310" y="390" width="140" height="120" rx="24" fill="#f7f3ea"/><rect x="480" y="390" width="140" height="120" rx="24" fill="#f7f3ea"/></svg>