<svg xmlns="http://www.w3.org/2000/svg" viewBox="0 0 1200 800" role="img" aria-label="Bapatla office"><defs><linearGradient id="bg" x1="0" y1="0" x2="1" y2="1"><stop stop-color="#061724"/><stop offset="1" stop-color="#0e3144"/></linearGradient><radialGradient id="r" cx="75%" cy="20%" r="55%"><stop stop-color="#d0ad68" stop-opacity=".55"/><stop offset="1" stop-color="#d0ad68" stop-opacity="0"/></radialGradient></defs><rect width="1200" height="800" rx="54" fill="url(#bg)"/><rect width="1200" height="800" rx="54" fill="url(#r)"/><path d="M80 676C250 565 402 602 566 505c162-96 291-292 554-202v373H80Z" fill="#f7f3ea" opacity=".10"/><text x="88" y="124" font-family="Inter,Arial,sans-serif" font-size="28" font-weight="800" letter-spacing="7" fill="#d0ad68">APPOINTMENT COORDINATION</text><text x="86" y="202" font-family="Georgia,serif" font-size="72" font-weight="700" fill="#fff">Bapatla office</text><rect x="708" y="274" width="318" height="205" rx="28" fill="#ffffff" opacity=".92"/><path d="M745 326h154M745 376h230M745 426h184" stroke="#b99655" stroke-width="12" stroke-linecap="round"/><rect x="158" y="320" width="364" height="182" rx="22" fill="#fff" opacity=".88"/><path d="M196 372h214M196 424h270" stroke="#0e3144" stroke-width="12" stroke-linecap="round" opacity=".75"/><path d="M88 712h420" stroke="#d0ad68" stroke-width="8" stroke-linecap="round" opacity=".75"/></svg>
