<svg xmlns="http://www.w3.org/2000/svg" width="1200" height="900" viewBox="0 0 1200 900" role="img" aria-labelledby="title desc"><title id="title">Professional finance workspace</title><desc id="desc">Premium illustration of ledgers, compliance calendar and advisory dashboard.</desc><defs><linearGradient id="bg" x1="0" x2="1"><stop stop-color="#061724"/><stop offset="1" stop-color="#11384a"/></linearGradient><linearGradient id="gold" x1="0" x2="1"><stop stop-color="#f4df9c"/><stop offset="1" stop-color="#b99655"/></linearGradient></defs><rect width="1200" height="900" rx="54" fill="url(#bg)"/><circle cx="960" cy="150" r="190" fill="#d0ad68" opacity=".13"/><circle cx="170" cy="760" r="240" fill="#6ea8bd" opacity=".12"/><rect x="170" y="155" width="410" height="560" rx="36" fill="#fff" opacity=".94"/><rect x="625" y="230" width="390" height="390" rx="36" fill="#fff" opacity=".1" stroke="#fff" stroke-opacity=".18"/><rect x="220" y="220" width="190" height="22" rx="11" fill="#b99655"/><rect x="220" y="282" width="300" height="18" rx="9" fill="#d7e2e7"/><rect x="220" y="330" width="250" height="18" rx="9" fill="#d7e2e7"/><rect x="220" y="410" width="90" height="150" rx="18" fill="#0b2433"/><rect x="330" y="360" width="90" height="200" rx="18" fill="#b99655"/><rect x="440" y="295" width="90" height="265" rx="18" fill="#6ea8bd"/><path d="M700 515 C765 410 830 475 945 325" fill="none" stroke="url(#gold)" stroke-width="18" stroke-linecap="round"/><circle cx="700" cy="515" r="18" fill="#f4df9c"/><circle cx="945" cy="325" r="18" fill="#f4df9c"/><g fill="#fff" opacity=".74"><rect x="705" y="265" width="130" height="18" rx="9"/><rect x="705" y="610" width="245" height="18" rx="9"/><rect x="705" y="650" width="190" height="18" rx="9"/></g></svg>
