<svg xmlns="http://www.w3.org/2000/svg" width="900" height="560" viewBox="0 0 900 560" role="img" aria-labelledby="title desc"><title id="title">Office location card</title><desc id="desc">Abstract map-style office illustration.</desc><rect width="900" height="560" rx="42" fill="#f7f3ea"/><path d="M100 150 C220 60 300 230 430 145 S660 85 800 180" fill="none" stroke="#d0ad68" stroke-width="22" stroke-linecap="round" opacity=".72"/><path d="M110 410 C230 320 350 450 485 345 S680 270 805 400" fill="none" stroke="#0e3144" stroke-width="18" stroke-linecap="round" opacity=".34"/><circle cx="450" cy="280" r="82" fill="#061724"/><path d="M450 166c-70 0-126 56-126 126 0 92 126 196 126 196s126-104 126-196c0-70-56-126-126-126zm0 174a50 50 0 1 1 0-100 50 50 0 0 1 0 100z" fill="#b99655"/></svg>
