<svg xmlns="http://www.w3.org/2000/svg" width="1200" height="700" viewBox="0 0 1200 700" role="img" aria-labelledby="title desc"><title id="title">Professional service suite</title><desc id="desc">Abstract cards representing audit, tax, GST, compliance and advisory.</desc><rect width="1200" height="700" rx="44" fill="#f7f3ea"/><circle cx="1010" cy="130" r="160" fill="#d0ad68" opacity=".22"/><g transform="translate(120 110)"><rect width="280" height="390" rx="34" fill="#061724"/><text x="42" y="85" fill="#d0ad68" font-family="Arial" font-weight="700" font-size="28">AUDIT</text><rect x="42" y="130" width="190" height="18" rx="9" fill="#fff" opacity=".65"/><rect x="42" y="178" width="150" height="18" rx="9" fill="#fff" opacity=".4"/><path d="M45 285l50 50 120-150" fill="none" stroke="#d0ad68" stroke-width="18" stroke-linecap="round" stroke-linejoin="round"/></g><g transform="translate(460 70)"><rect width="280" height="470" rx="34" fill="#ffffff" stroke="#d8c8aa"/><text x="42" y="85" fill="#061724" font-family="Arial" font-weight="700" font-size="28">TAX &amp; GST</text><rect x="42" y="130" width="190" height="18" rx="9" fill="#8b9aa4"/><rect x="42" y="178" width="150" height="18" rx="9" fill="#b7c2c8"/><rect x="42" y="250" width="196" height="120" rx="22" fill="#d0ad68" opacity=".85"/></g><g transform="translate(800 145)"><rect width="280" height="355" rx="34" fill="#0e3144"/><text x="42" y="85" fill="#d0ad68" font-family="Arial" font-weight="700" font-size="28">ADVISORY</text><path d="M50 260 C120 160 170 235 235 115" fill="none" stroke="#d0ad68" stroke-width="14" stroke-linecap="round"/></g></svg>
