<svg xmlns="http://www.w3.org/2000/svg" viewBox="0 0 1200 675" role="img" aria-label="Visual QA screenshot preview for Footer page"><defs><linearGradient id="bg" x1="0" x2="1"><stop stop-color="#061724"/><stop offset="1" stop-color="#0e3144"/></linearGradient></defs><rect width="1200" height="675" fill="url(#bg)"/><text x="72" y="76" font-family="Georgia,serif" font-size="38" font-weight="700" fill="#fff">Minchala &amp; Associates</text><text x="72" y="112" font-family="Inter,Arial" font-size="14" font-weight="800" letter-spacing="5" fill="#d0ad68">VISUAL QA · FOOTER</text><rect x="72" y="156" width="520" height="410" rx="42" fill="#f7f3ea"/><rect x="112" y="204" width="132" height="48" rx="14" fill="#061724"/><text x="178" y="235" text-anchor="middle" font-family="Georgia" font-size="20" font-weight="700" fill="#d0ad68">M&amp;A</text><text x="112" y="326" font-family="Georgia" font-size="72" font-weight="700" fill="#061724">Footer</text><text x="114" y="374" font-family="Inter,Arial" font-size="22" fill="#334155">Logo, contact details and consultation form footer</text><rect x="114" y="430" width="235" height="54" rx="27" fill="#d0ad68"/><text x="232" y="463" text-anchor="middle" font-family="Inter,Arial" font-size="13" font-weight="800" fill="#061724">REQUEST APPOINTMENT</text><rect x="646" y="156" width="482" height="410" rx="42" fill="#ffffff" opacity=".08"/><text x="680" y="185" font-family="Inter,Arial" font-size="14" font-weight="800" letter-spacing="3" fill="#d0ad68">ASSETS USED ON THIS PAGE</text><rect x="642" y="194" width="206" height="146" rx="18" fill="#fff" opacity=".94"/><image href="../assets/images/ca-style-minchala-logo.svg" x="650" y="202" width="190" height="130" preserveAspectRatio="xMidYMid slice"/><text x="745" y="360" text-anchor="middle" font-family="Inter,Arial" font-size="11" font-weight="700" fill="#d0ad68">ca-style-minchala-logo.svg</text><rect x="872" y="194" width="206" height="146" rx="18" fill="#fff" opacity=".94"/><image href="../assets/images/ma-monogram-logo.svg" x="880" y="202" width="190" height="130" preserveAspectRatio="xMidYMid slice"/><text x="975" y="360" text-anchor="middle" font-family="Inter,Arial" font-size="11" font-weight="700" fill="#d0ad68">ma-monogram-logo.svg</text><circle cx="1060" cy="604" r="38" fill="#0b7a3b"/><text x="1060" y="614" text-anchor="middle" font-family="Inter,Arial" font-size="26" fill="#fff">✆</text><text x="72" y="628" font-family="Inter,Arial" font-size="14" fill="#d0ad68">Pre-deployment preview · +91 7842850732 · info@minchalaassociates.com · Not deployed</text></svg>